<svg xmlns="http://www.w3.org/2000/svg" xmlns:xlink="http://www.w3.org/1999/xlink" width="281" zoomAndPan="magnify" viewBox="0 0 210.75 95.249998" height="127" preserveAspectRatio="xMidYMid meet" version="1.0"><defs><clipPath id="47ef924cb5"><path d="M 18.589844 2.25 L 68.058594 2.25 L 68.058594 36.976562 L 18.589844 36.976562 Z M 18.589844 2.25 " clip-rule="nonzero"/></clipPath><clipPath id="134c86b260"><path d="M 31.601562 25.070312 L 55.414062 25.070312 L 55.414062 39.167969 L 31.601562 39.167969 Z M 31.601562 25.070312 " clip-rule="nonzero"/></clipPath></defs><path fill="#000000" d="M 39.449219 33.417969 C 38 35.363281 36.691406 37.492188 35.511719 39.820312 C 34.335938 42.144531 33.328125 44.53125 32.492188 46.980469 C 31.652344 49.421875 31.011719 51.835938 30.566406 54.222656 C 30.121094 56.601562 29.902344 58.820312 29.902344 60.886719 C 29.902344 63.453125 30.277344 65.304688 31.03125 66.453125 C 31.785156 67.601562 33.082031 68.175781 34.925781 68.175781 C 37.050781 68.175781 38.917969 67.429688 40.519531 65.941406 C 42.132812 64.445312 43.644531 62.382812 45.0625 59.757812 C 45.980469 58.050781 46.769531 56.183594 47.417969 54.144531 C 48.078125 52.109375 48.613281 50.015625 49.015625 47.867188 C 49.425781 45.71875 49.734375 43.550781 49.929688 41.371094 C 50.125 39.191406 50.226562 37.097656 50.226562 35.089844 C 50.226562 33.8125 50.210938 32.875 50.179688 32.285156 C 50.148438 31.695312 50.101562 31.222656 50.039062 30.859375 C 50.132812 30.859375 50.371094 30.898438 50.769531 30.96875 C 51.160156 31.027344 51.609375 31.113281 52.117188 31.214844 C 52.632812 31.308594 53.144531 31.441406 53.652344 31.601562 C 54.15625 31.769531 54.589844 31.953125 54.953125 32.144531 C 54.785156 34.636719 54.480469 37.210938 54.039062 39.867188 C 53.59375 42.523438 53.007812 45.148438 52.285156 47.742188 C 51.574219 50.339844 50.742188 52.832031 49.789062 55.230469 C 48.835938 57.628906 47.769531 59.777344 46.582031 61.679688 C 44.847656 64.5 42.890625 66.707031 40.722656 68.296875 C 38.558594 69.886719 36 70.6875 33.046875 70.6875 C 30.03125 70.6875 27.683594 69.804688 26.011719 68.050781 C 24.335938 66.292969 23.5 63.628906 23.5 60.050781 C 23.5 57.984375 23.722656 55.648438 24.179688 53.042969 C 24.644531 50.429688 25.257812 47.769531 26.027344 45.058594 C 26.800781 42.355469 27.691406 39.710938 28.707031 37.136719 C 29.730469 34.5625 30.800781 32.261719 31.917969 30.222656 C 32.476562 30.253906 33.128906 30.371094 33.886719 30.5625 C 34.636719 30.761719 35.378906 31.011719 36.101562 31.324219 C 36.824219 31.632812 37.484375 31.984375 38.085938 32.363281 C 38.695312 32.734375 39.148438 33.085938 39.449219 33.417969 Z M 39.449219 33.417969 " fill-opacity="1" fill-rule="nonzero"/><path fill="#000000" d="M 61.980469 42.671875 C 62.839844 42.941406 63.644531 43.523438 64.398438 44.421875 C 65.152344 45.324219 65.710938 46.316406 66.074219 47.398438 C 65.710938 48.292969 65.152344 49.359375 64.398438 50.609375 C 63.644531 51.847656 62.886719 53.121094 62.136719 54.421875 C 61.378906 55.71875 60.699219 56.945312 60.089844 58.113281 C 59.476562 59.273438 59.128906 60.230469 59.035156 60.980469 C 59.5625 60.421875 60.140625 59.777344 60.773438 59.042969 C 61.410156 58.296875 62.035156 57.5625 62.648438 56.824219 C 63.257812 56.082031 63.828125 55.410156 64.351562 54.8125 C 64.878906 54.203125 65.289062 53.75 65.578125 53.445312 C 66.199219 52.796875 66.933594 52.035156 67.792969 51.167969 C 68.652344 50.300781 69.546875 49.476562 70.476562 48.703125 C 71.414062 47.925781 72.359375 47.273438 73.3125 46.734375 C 74.261719 46.199219 75.132812 45.925781 75.917969 45.925781 C 76.761719 45.925781 77.476562 46.21875 78.058594 46.796875 C 78.636719 47.367188 79.085938 47.957031 79.40625 48.578125 C 79.40625 48.640625 79.28125 48.734375 79.035156 48.859375 C 78.792969 48.972656 78.445312 49.289062 77.980469 49.804688 C 77.523438 50.402344 77.007812 51.222656 76.429688 52.253906 C 75.859375 53.289062 75.300781 54.402344 74.753906 55.601562 C 74.214844 56.792969 73.765625 58.011719 73.40625 59.261719 C 73.042969 60.511719 72.863281 61.644531 72.863281 62.65625 C 72.863281 63.484375 72.964844 64.011719 73.175781 64.238281 C 73.390625 64.464844 73.695312 64.578125 74.089844 64.578125 C 74.449219 64.578125 74.824219 64.496094 75.21875 64.328125 C 75.625 64.167969 75.9375 64.082031 76.167969 64.082031 C 76.289062 64.15625 76.390625 64.296875 76.476562 64.515625 C 76.558594 64.726562 76.601562 64.910156 76.601562 65.074219 C 76.339844 65.300781 76.03125 65.53125 75.671875 65.753906 C 75.304688 65.984375 74.929688 66.203125 74.539062 66.40625 C 74.144531 66.601562 73.753906 66.761719 73.375 66.886719 C 73.003906 67.019531 72.667969 67.089844 72.367188 67.089844 C 71.414062 67.089844 70.636719 66.949219 70.027344 66.671875 C 69.425781 66.390625 68.949219 66.027344 68.601562 65.570312 C 68.261719 65.105469 68.019531 64.554688 67.886719 63.910156 C 67.765625 63.269531 67.703125 62.589844 67.703125 61.863281 C 67.703125 61.472656 67.734375 61.035156 67.792969 60.546875 C 67.855469 60.050781 67.984375 59.46875 68.183594 58.792969 C 68.375 58.125 68.65625 57.320312 69.019531 56.390625 C 69.378906 55.453125 69.839844 54.324219 70.398438 53.011719 C 70.335938 53.011719 69.890625 53.246094 69.066406 53.710938 C 68.25 54.167969 67.363281 54.867188 66.414062 55.816406 C 64.871094 57.296875 63.488281 58.761719 62.261719 60.207031 C 61.027344 61.644531 59.773438 63.25 58.492188 65.027344 C 57.769531 66.042969 57.132812 66.894531 56.585938 67.601562 C 56.046875 68.3125 55.582031 68.78125 55.191406 69.011719 C 54.507812 68.617188 54 68.066406 53.671875 67.351562 C 53.339844 66.648438 53.089844 65.921875 52.929688 65.167969 C 52.929688 64.546875 53.011719 63.761719 53.191406 62.808594 C 53.378906 61.859375 53.625 60.800781 53.9375 59.632812 C 54.246094 58.464844 54.625 57.246094 55.082031 55.972656 C 55.546875 54.695312 56.058594 53.410156 56.617188 52.128906 C 57.867188 49.238281 59.007812 46.972656 60.042969 45.339844 C 61.074219 43.695312 61.722656 42.808594 61.980469 42.671875 Z M 61.980469 42.671875 " fill-opacity="1" fill-rule="nonzero"/><path fill="#000000" d="M 80.632812 63.246094 C 80.632812 62.957031 80.65625 62.589844 80.710938 62.144531 C 80.761719 61.703125 80.851562 61.113281 80.976562 60.375 C 81.105469 59.632812 81.277344 58.742188 81.488281 57.695312 C 81.703125 56.640625 81.976562 55.375 82.308594 53.894531 C 82.371094 53.566406 82.515625 53.042969 82.742188 52.332031 C 82.980469 51.609375 83.285156 50.84375 83.65625 50.035156 C 84.039062 49.230469 84.5 48.449219 85.039062 47.695312 C 85.582031 46.941406 86.234375 46.382812 86.992188 46.019531 C 87.546875 46.15625 88.285156 46.492188 89.207031 47.027344 C 90.125 47.566406 90.914062 48.316406 91.5625 49.277344 C 90.808594 50.125 90.175781 50.976562 89.671875 51.835938 C 89.164062 52.683594 88.703125 53.566406 88.292969 54.484375 C 87.878906 55.40625 87.503906 56.359375 87.160156 57.351562 C 86.820312 58.335938 86.433594 59.363281 86 60.4375 C 85.632812 61.359375 85.304688 62.304688 85.007812 63.273438 C 84.714844 64.246094 84.554688 65.089844 84.527344 65.800781 C 84.527344 66.402344 84.515625 66.816406 84.496094 67.058594 C 84.484375 67.304688 84.394531 67.429688 84.230469 67.429688 C 84.09375 67.429688 83.832031 67.34375 83.441406 67.183594 C 83.046875 67.015625 82.640625 66.761719 82.230469 66.421875 C 81.828125 66.082031 81.460938 65.648438 81.128906 65.121094 C 80.796875 64.59375 80.632812 63.96875 80.632812 63.246094 Z M 90.042969 41.882812 C 90.042969 41.6875 90.089844 41.394531 90.183594 40.996094 C 90.015625 40.835938 89.878906 40.589844 89.765625 40.269531 C 89.648438 39.9375 89.59375 39.640625 89.59375 39.371094 C 89.59375 39.082031 89.632812 38.683594 89.71875 38.175781 C 89.800781 37.660156 89.90625 37.105469 90.027344 36.515625 C 90.160156 35.929688 90.328125 35.316406 90.523438 34.671875 C 90.71875 34.03125 90.917969 33.449219 91.113281 32.921875 C 91.515625 32.921875 92 33.027344 92.570312 33.246094 C 93.148438 33.464844 93.734375 33.742188 94.324219 34.082031 C 94.914062 34.425781 95.445312 34.804688 95.933594 35.214844 C 96.429688 35.628906 96.8125 36.015625 97.082031 36.378906 C 96.71875 36.742188 96.238281 37.242188 95.640625 37.882812 C 95.050781 38.511719 94.476562 39.183594 93.921875 39.898438 C 93.363281 40.601562 92.855469 41.269531 92.402344 41.898438 C 91.945312 42.515625 91.648438 42.957031 91.515625 43.214844 C 91.121094 43.152344 90.777344 42.980469 90.476562 42.703125 C 90.1875 42.421875 90.042969 42.152344 90.042969 41.882812 Z M 90.042969 41.882812 " fill-opacity="1" fill-rule="nonzero"/><path fill="#000000" d="M 108.046875 69.695312 C 107.289062 70.085938 106.488281 70.28125 105.644531 70.28125 C 104.589844 70.160156 103.574219 69.894531 102.605469 69.492188 C 101.644531 69.097656 100.929688 68.625 100.464844 68.066406 C 100.207031 66.464844 99.992188 64.992188 99.828125 63.648438 C 99.664062 62.292969 99.527344 61.023438 99.425781 59.832031 C 99.332031 58.636719 99.269531 57.488281 99.238281 56.390625 C 99.210938 55.289062 99.195312 54.175781 99.195312 53.058594 C 99.195312 51.582031 99.210938 50.027344 99.238281 48.390625 C 99.269531 46.75 99.308594 45.003906 99.363281 43.152344 C 99.414062 41.292969 99.457031 39.304688 99.488281 37.183594 C 99.519531 35.066406 99.535156 32.761719 99.535156 30.269531 C 99.957031 30.269531 100.59375 30.394531 101.441406 30.640625 C 102.296875 30.890625 103.148438 31.179688 103.984375 31.507812 C 104.820312 31.832031 105.566406 32.167969 106.214844 32.515625 C 106.875 32.859375 107.242188 33.144531 107.316406 33.371094 C 106.984375 34.292969 106.695312 35.488281 106.449219 36.964844 C 106.199219 38.445312 106.003906 40.089844 105.859375 41.898438 C 105.710938 43.695312 105.605469 45.597656 105.535156 47.601562 C 105.472656 49.597656 105.441406 51.582031 105.441406 53.554688 C 105.441406 55.035156 105.457031 56.355469 105.488281 57.523438 C 105.519531 58.683594 105.558594 59.734375 105.613281 60.671875 C 105.660156 61.601562 105.734375 62.46875 105.828125 63.273438 C 105.929688 64.082031 106.050781 64.878906 106.183594 65.664062 C 107.105469 62.871094 108.113281 60.082031 109.207031 57.292969 C 110.300781 54.5 111.433594 51.820312 112.601562 49.246094 C 113.769531 46.671875 114.929688 44.269531 116.074219 42.035156 C 117.222656 39.804688 118.3125 37.863281 119.347656 36.207031 C 120.378906 34.542969 121.304688 33.230469 122.121094 32.269531 C 122.945312 31.300781 123.625 30.78125 124.152344 30.71875 C 124.5 30.78125 124.886719 30.921875 125.300781 31.136719 C 125.710938 31.347656 126.097656 31.597656 126.460938 31.898438 C 126.824219 32.1875 127.148438 32.511719 127.4375 32.875 C 127.738281 33.238281 127.96875 33.597656 128.136719 33.960938 C 126.914062 34.386719 125.609375 35.386719 124.214844 36.964844 C 122.820312 38.539062 121.414062 40.433594 119.996094 42.65625 C 118.589844 44.871094 117.222656 47.285156 115.890625 49.894531 C 114.5625 52.5 113.371094 55.050781 112.308594 57.539062 C 111.242188 60.03125 110.332031 62.359375 109.582031 64.53125 C 108.824219 66.691406 108.3125 68.410156 108.046875 69.695312 Z M 108.046875 69.695312 " fill-opacity="1" fill-rule="nonzero"/><path fill="#000000" d="M 137.335938 46.175781 C 137.203125 48.203125 136.839844 49.949219 136.253906 51.414062 C 135.664062 52.871094 134.816406 54.15625 133.710938 55.261719 C 132.613281 56.355469 131.277344 57.347656 129.695312 58.238281 C 128.121094 59.117188 126.289062 59.96875 124.191406 60.792969 C 124.191406 60.992188 124.179688 61.199219 124.160156 61.414062 C 124.148438 61.625 124.144531 61.839844 124.144531 62.066406 C 124.144531 62.492188 124.175781 62.933594 124.238281 63.398438 C 124.300781 63.855469 124.414062 64.277344 124.578125 64.671875 C 124.742188 65.066406 124.972656 65.382812 125.261719 65.632812 C 125.558594 65.878906 125.945312 66.003906 126.410156 66.003906 C 127.296875 66.003906 128.164062 65.808594 129.011719 65.414062 C 129.871094 65.023438 130.679688 64.542969 131.445312 63.972656 C 132.222656 63.394531 132.941406 62.769531 133.617188 62.097656 C 134.289062 61.425781 134.886719 60.808594 135.414062 60.253906 C 135.746094 60.542969 136.023438 60.820312 136.253906 61.089844 C 134.773438 63.054688 133.15625 64.6875 131.402344 65.988281 C 129.640625 67.277344 127.976562 68.105469 126.410156 68.46875 C 124.144531 68.199219 122.378906 67.371094 121.105469 65.988281 C 119.84375 64.59375 119.214844 62.910156 119.214844 60.933594 C 119.214844 59.59375 119.402344 58.222656 119.773438 56.824219 C 120.152344 55.429688 120.679688 54.089844 121.355469 52.796875 C 122.027344 51.492188 122.8125 50.269531 123.710938 49.121094 C 124.617188 47.972656 125.589844 46.976562 126.625 46.128906 C 127.65625 45.273438 128.722656 44.601562 129.820312 44.113281 C 130.921875 43.617188 132.019531 43.371094 133.105469 43.371094 C 134.613281 43.566406 136.023438 44.5 137.335938 46.175781 Z M 133.941406 47.789062 C 133.050781 47.921875 132.132812 48.285156 131.183594 48.871094 C 130.230469 49.460938 129.339844 50.253906 128.5 51.246094 C 127.664062 52.230469 126.898438 53.375 126.207031 54.6875 C 125.511719 56 124.972656 57.410156 124.578125 58.917969 C 127.203125 57.609375 129.386719 55.988281 131.121094 54.066406 C 132.867188 52.144531 133.808594 50.050781 133.941406 47.789062 Z M 133.941406 47.789062 " fill-opacity="1" fill-rule="nonzero"/><path fill="#000000" d="M 138.414062 65.554688 C 138.578125 64.605469 138.863281 63.351562 139.269531 61.800781 C 139.679688 60.246094 140.167969 58.585938 140.726562 56.824219 C 141.285156 55.070312 141.871094 53.308594 142.492188 51.539062 C 143.121094 49.765625 143.734375 48.171875 144.320312 46.765625 C 144.746094 45.742188 145.121094 44.945312 145.453125 44.378906 C 145.78125 43.800781 146.144531 43.316406 146.539062 42.917969 C 146.992188 42.980469 147.460938 43.097656 147.949219 43.261719 C 148.445312 43.425781 148.917969 43.628906 149.375 43.867188 C 149.839844 44.09375 150.25 44.332031 150.617188 44.578125 C 150.976562 44.820312 151.253906 45.050781 151.453125 45.277344 C 150.5625 46.332031 149.78125 47.53125 149.113281 48.871094 C 148.4375 50.21875 147.761719 51.941406 147.082031 54.050781 C 148.847656 52.46875 150.414062 50.960938 151.777344 49.523438 C 153.140625 48.078125 154.414062 46.464844 155.59375 44.6875 C 155.785156 44.523438 156.132812 44.4375 156.628906 44.4375 C 157.085938 44.4375 157.523438 44.515625 157.949219 44.671875 C 158.382812 44.820312 158.675781 45.019531 158.832031 45.277344 C 158.242188 46.859375 157.949219 48.417969 157.949219 49.957031 C 157.949219 51.40625 158.164062 52.492188 158.597656 53.214844 C 158.558594 53.410156 158.328125 53.789062 157.917969 54.34375 C 157.515625 54.902344 157.066406 55.425781 156.570312 55.910156 C 155.6875 55.457031 154.902344 54.824219 154.210938 54.019531 C 153.519531 53.214844 153.011719 52.335938 152.691406 51.382812 C 151.144531 52.46875 149.824219 53.53125 148.738281 54.5625 C 147.664062 55.597656 146.738281 56.746094 145.964844 58.003906 C 145.199219 59.269531 144.542969 60.71875 143.996094 62.359375 C 143.457031 64.003906 142.941406 65.957031 142.445312 68.21875 C 142.15625 68.191406 141.800781 68.082031 141.390625 67.894531 C 140.976562 67.714844 140.5625 67.496094 140.152344 67.226562 C 139.75 66.96875 139.378906 66.695312 139.050781 66.40625 C 138.71875 66.109375 138.507812 65.824219 138.414062 65.554688 Z M 138.414062 65.554688 " fill-opacity="1" fill-rule="nonzero"/><path fill="#000000" d="M 175.613281 46.949219 C 175.582031 47.582031 175.472656 48.234375 175.289062 48.902344 C 175.109375 49.578125 174.890625 50.1875 174.621094 50.734375 C 174.363281 51.273438 174.082031 51.722656 173.785156 52.082031 C 173.492188 52.433594 173.21875 52.609375 172.960938 52.609375 C 172.597656 52.578125 172.390625 52.335938 172.328125 51.878906 C 172.328125 51.78125 172.367188 51.625 172.453125 51.414062 C 172.53125 51.199219 172.621094 50.960938 172.714844 50.703125 C 172.816406 50.433594 172.90625 50.171875 172.976562 49.910156 C 173.058594 49.644531 173.101562 49.410156 173.101562 49.214844 C 173.101562 48.761719 172.992188 48.375 172.777344 48.066406 C 172.566406 47.757812 172.285156 47.601562 171.925781 47.601562 C 170.609375 47.601562 169.605469 48.421875 168.917969 50.066406 C 168.234375 51.703125 167.894531 54.109375 167.894531 57.292969 C 167.894531 57.625 167.910156 57.816406 167.941406 57.878906 C 168.628906 57.847656 169.246094 57.828125 169.785156 57.816406 C 170.332031 57.796875 170.863281 57.789062 171.382812 57.789062 C 171.414062 57.847656 171.429688 57.980469 171.429688 58.175781 C 171.429688 58.476562 171.367188 58.695312 171.242188 58.824219 C 170.488281 58.980469 169.886719 59.121094 169.445312 59.246094 C 169 59.359375 168.660156 59.46875 168.4375 59.570312 C 168.207031 59.664062 168.066406 59.769531 168.019531 59.878906 C 167.964844 59.996094 167.941406 60.152344 167.941406 60.34375 C 167.941406 60.605469 167.945312 60.867188 167.957031 61.136719 C 167.976562 61.394531 167.988281 61.722656 167.988281 62.113281 C 167.988281 64.871094 167.234375 67.089844 165.738281 68.761719 C 164.25 70.4375 162.175781 71.402344 159.523438 71.664062 C 159.066406 71.632812 158.59375 71.5 158.097656 71.273438 C 157.601562 71.046875 157.128906 70.75 156.683594 70.390625 C 156.25 70.027344 155.867188 69.625 155.539062 69.183594 C 155.203125 68.734375 154.980469 68.285156 154.855469 67.832031 C 154.855469 66.582031 155.113281 65.394531 155.632812 64.265625 C 156.160156 63.132812 156.871094 62.128906 157.769531 61.261719 C 158.675781 60.390625 159.746094 59.691406 160.980469 59.152344 C 162.207031 58.605469 163.546875 58.28125 164.996094 58.175781 C 164.996094 57.359375 164.910156 56.558594 164.746094 55.773438 C 164.578125 54.976562 164.40625 54.214844 164.21875 53.476562 C 164.042969 52.746094 163.871094 52.027344 163.707031 51.324219 C 163.542969 50.609375 163.460938 49.90625 163.460938 49.214844 C 163.460938 48.339844 163.636719 47.460938 164.003906 46.59375 C 164.363281 45.71875 164.839844 44.910156 165.429688 44.175781 C 166.019531 43.441406 166.703125 42.8125 167.492188 42.285156 C 168.285156 41.757812 169.105469 41.398438 169.957031 41.199219 C 170.316406 41.292969 170.800781 41.578125 171.414062 42.050781 C 172.019531 42.527344 172.621094 43.066406 173.210938 43.664062 C 173.800781 44.253906 174.320312 44.855469 174.777344 45.460938 C 175.242188 46.0625 175.519531 46.558594 175.613281 46.949219 Z M 159.382812 69.398438 C 160.164062 69.066406 160.910156 68.59375 161.613281 67.972656 C 162.316406 67.351562 162.933594 66.648438 163.460938 65.863281 C 163.988281 65.070312 164.40625 64.234375 164.714844 63.351562 C 165.027344 62.464844 165.179688 61.59375 165.179688 60.734375 C 164.53125 60.835938 163.804688 61.144531 163.011719 61.648438 C 162.222656 62.15625 161.484375 62.761719 160.792969 63.476562 C 160.113281 64.183594 159.539062 64.910156 159.074219 65.664062 C 158.617188 66.417969 158.390625 67.074219 158.390625 67.632812 C 158.390625 68.351562 158.71875 68.941406 159.382812 69.398438 Z M 159.382812 69.398438 " fill-opacity="1" fill-rule="nonzero"/><path fill="#000000" d="M 193.292969 46.175781 C 193.15625 48.203125 192.796875 49.949219 192.207031 51.414062 C 191.617188 52.871094 190.769531 54.15625 189.664062 55.261719 C 188.566406 56.355469 187.230469 57.347656 185.648438 58.238281 C 184.078125 59.117188 182.242188 59.96875 180.144531 60.792969 C 180.144531 60.992188 180.132812 61.199219 180.117188 61.414062 C 180.105469 61.625 180.101562 61.839844 180.101562 62.066406 C 180.101562 62.492188 180.128906 62.933594 180.191406 63.398438 C 180.253906 63.855469 180.367188 64.277344 180.535156 64.671875 C 180.695312 65.066406 180.925781 65.382812 181.214844 65.632812 C 181.515625 65.878906 181.898438 66.003906 182.363281 66.003906 C 183.25 66.003906 184.117188 65.808594 184.96875 65.414062 C 185.824219 65.023438 186.632812 64.542969 187.402344 63.972656 C 188.175781 63.394531 188.898438 62.769531 189.570312 62.097656 C 190.242188 61.425781 190.84375 60.808594 191.371094 60.253906 C 191.699219 60.542969 191.980469 60.820312 192.207031 61.089844 C 190.726562 63.054688 189.109375 64.6875 187.355469 65.988281 C 185.59375 67.277344 183.933594 68.105469 182.363281 68.46875 C 180.101562 68.199219 178.332031 67.371094 177.0625 65.988281 C 175.796875 64.59375 175.171875 62.910156 175.171875 60.933594 C 175.171875 59.59375 175.355469 58.222656 175.726562 56.824219 C 176.109375 55.429688 176.636719 54.089844 177.308594 52.796875 C 177.980469 51.492188 178.765625 50.269531 179.664062 49.121094 C 180.574219 47.972656 181.546875 46.976562 182.582031 46.128906 C 183.609375 45.273438 184.675781 44.601562 185.773438 44.113281 C 186.878906 43.617188 187.976562 43.371094 189.058594 43.371094 C 190.566406 43.566406 191.980469 44.5 193.292969 46.175781 Z M 189.898438 47.789062 C 189.007812 47.921875 188.085938 48.285156 187.136719 48.871094 C 186.183594 49.460938 185.292969 50.253906 184.457031 51.246094 C 183.617188 52.230469 182.851562 53.375 182.160156 54.6875 C 181.46875 56 180.925781 57.410156 180.535156 58.917969 C 183.15625 57.609375 185.339844 55.988281 187.074219 54.066406 C 188.820312 52.144531 189.761719 50.050781 189.898438 47.789062 Z M 189.898438 47.789062 " fill-opacity="1" fill-rule="nonzero"/><g clip-path="url(#47ef924cb5)"><path fill="#000000" d="M 43.324219 2.324219 L 18.589844 15.453125 L 43.324219 28.582031 L 57.640625 21.28125 C 57.640625 21.28125 57.640625 27.894531 57.640625 31.207031 C 57.640625 36.457031 62.847656 36.457031 62.847656 36.457031 L 62.847656 33.828125 C 62.847656 33.828125 60.242188 33.683594 60.242188 31.207031 C 60.242188 27.269531 60.242188 19.800781 60.242188 19.800781 L 68.058594 15.453125 Z M 43.324219 2.324219 " fill-opacity="1" fill-rule="nonzero"/></g><g clip-path="url(#134c86b260)"><path fill="#000000" d="M 31.605469 25.953125 L 31.605469 31.207031 C 31.605469 32.511719 32.453125 34.257812 34.210938 35.144531 L 43.324219 39.082031 L 51.132812 35.144531 C 52.890625 34.257812 55.164062 32.503906 55.039062 31.207031 L 55.039062 25.953125 L 43.324219 31.699219 Z M 31.605469 25.953125 " fill-opacity="1" fill-rule="nonzero"/></g></svg>